<?xml version="1.0" encoding="UTF-8" standalone="no"?>
<svg
   xmlns:dc="http://purl.org/dc/elements/1.1/"
   xmlns:cc="http://creativecommons.org/ns#"
   xmlns:rdf="http://www.w3.org/1999/02/22-rdf-syntax-ns#"
   xmlns:svg="http://www.w3.org/2000/svg"
   xmlns="http://www.w3.org/2000/svg"
   xmlns:sodipodi="http://sodipodi.sourceforge.net/DTD/sodipodi-0.dtd"
   xmlns:inkscape="http://www.inkscape.org/namespaces/inkscape"
   sodipodi:docname="404.html"
   inkscape:version="1.0 (4035a4fb49, 2020-05-01)"
   id="svg8"
   version="1.1"
   viewBox="0 0 38.457512 39.57317"
   height="39.57317mm"
   width="38.457512mm">
  <defs
     id="defs2" />
  <sodipodi:namedview
     inkscape:snap-text-baseline="false"
     inkscape:window-maximized="1"
     inkscape:window-y="-8"
     inkscape:window-x="1912"
     inkscape:window-height="1137"
     inkscape:window-width="1920"
     showgrid="false"
     inkscape:document-rotation="0"
     inkscape:current-layer="layer1"
     inkscape:document-units="mm"
     inkscape:cy="411.52938"
     inkscape:cx="-571.94212"
     inkscape:zoom="0.2468872"
     inkscape:pageshadow="2"
     inkscape:pageopacity="0.0"
     borderopacity="1.0"
     bordercolor="#666666"
     pagecolor="#ffffff"
     id="base"
     showborder="false"
     inkscape:snap-global="true"
     fit-margin-top="0"
     fit-margin-left="0"
     fit-margin-right="0"
     fit-margin-bottom="0" />
  <metadata
     id="metadata5">
    <rdf:RDF>
      <cc:Work
         rdf:about="">
        <dc:format>image/svg+xml</dc:format>
        <dc:type
           rdf:resource="http://purl.org/dc/dcmitype/StillImage" />
        <dc:title></dc:title>
      </cc:Work>
    </rdf:RDF>
  </metadata>
  <g
     id="layer1"
     inkscape:groupmode="layer"
     inkscape:label="Layer 1"
     transform="translate(337.43459,-273.0156)">
    <path
       sodipodi:nodetypes="cccccccscsccscccccccscccccccccccccccccccc"
       d="m -323.29203,273.0156 c -1.34727,0 -2.68504,0.1902 -3.96094,0.58399 -1.2116,0.37397 -2.371,0.90816 -3.4375,1.59375 -0.007,0.005 -0.0144,0.0104 -0.0215,0.0156 -1.04014,0.67833 -1.98585,1.49067 -2.81641,2.41016 -0.81625,0.90372 -1.52664,1.90661 -2.11132,2.98828 -0.007,0.0123 -0.0131,0.0247 -0.0195,0.0371 -0.5756,1.09217 -1.01504,2.25409 -1.3164,3.45899 -1.5e-4,5.9e-4 1.5e-4,10e-4 0,0.002 -0.30795,1.22122 -0.45899,2.47648 -0.45899,3.73437 0,1.28967 0.1583,2.57388 0.49219,3.81836 0.004,0.015 0.008,0.03 0.0117,0.0449 0.32939,1.17435 0.78814,2.30341 1.37695,3.36329 0.0109,0.0196 0.022,0.0392 0.0332,0.0586 0.60535,1.04832 1.33752,2.02088 2.17968,2.89258 0.0161,0.0164 0.0324,0.0327 0.0488,0.0488 0.86737,0.86736 1.84008,1.61876 2.89063,2.24023 0.0123,0.007 0.0247,0.0144 0.0371,0.0215 1.06031,0.6123 2.19632,1.08668 3.37695,1.42188 0.004,0.001 0.008,0.003 0.0117,0.004 1.25706,0.35258 2.56347,0.52148 3.8789,0.52148 0.632,0 1.23713,-0.17676 1.85938,-0.25586 -0.0409,2.15882 -0.0837,4.30973 -0.1211,6.48242 -0.0399,2.36981 1.96913,4.25931 4.33204,4.07422 l 13.66406,-1.07031 c 1.94646,-0.15317 3.5012,-1.6832 3.68555,-3.62695 l 0.68164,-7.20703 c 0.22259,-2.35784 -1.63168,-4.3959 -4,-4.39649 -0.63673,0 -1.2575,0.007 -1.85938,0.0176 h -0.006 c -0.13747,0.003 -0.28619,0.002 -0.42578,0.004 0.068,-0.91839 0.10167,-1.84855 0.18945,-2.75977 v -0.002 c 0.22616,-2.35848 0.46156,-4.71421 0.70899,-7.07032 0.24848,-2.37185 -1.61127,-4.43702 -3.9961,-4.4375 h -1.35351 c -0.0462,-0.13266 -0.0431,-0.22766 -0.0977,-0.36523 -0.68255,-1.75599 -1.71057,-3.35891 -3.04492,-4.66602 -1.32638,-1.32002 -2.94585,-2.32896 -4.71289,-2.99218 -1.79067,-0.676 -3.71725,-0.98829 -5.69922,-0.98829 z"
       style="font-style:normal;font-variant:normal;font-weight:normal;font-stretch:normal;font-size:24.8781px;line-height:1.25;font-family:'Luckiest Guy';-inkscape-font-specification:'Luckiest Guy';fill:#ea9200;fill-opacity:1;stroke:none;stroke-width:1.505;stroke-linejoin:miter;stroke-miterlimit:4.3;stroke-dasharray:none;stroke-opacity:1"
       id="path1043" />
    <path
       d="m -323.29235,277.03224 c -0.9737,0 -1.89816,0.13622 -2.7745,0.40669 -0.87632,0.27048 -1.69266,0.64798 -2.44998,1.13482 -0.74651,0.48684 -1.42242,1.0666 -2.0283,1.73736 -0.60585,0.67077 -1.12685,1.40548 -1.5596,2.20607 -0.42193,0.80059 -0.74535,1.65437 -0.97255,2.56315 -0.22719,0.89797 -0.34003,1.81775 -0.34003,2.759 0,0.96287 0.11752,1.88997 0.35553,2.77709 0.24883,0.88714 0.5889,1.72012 1.02165,2.49908 0.44357,0.76815 0.97393,1.46958 1.5906,2.10788 0.62749,0.62749 1.32682,1.16978 2.09496,1.62419 0.76814,0.44357 1.58917,0.78834 2.46548,1.03714 0.88715,0.24883 1.81891,0.37311 2.7926,0.37311 1.00615,0 1.95663,-0.12895 2.8546,-0.38861 0.89796,-0.27048 1.72627,-0.64382 2.48357,-1.11983 0.76814,-0.47605 1.45553,-1.0438 2.06138,-1.70377 0.61668,-0.67076 1.13507,-1.40754 1.55701,-2.20813 0.43276,-0.80059 0.76345,-1.65438 0.99063,-2.56315 0.22719,-0.91959 0.34003,-1.87216 0.34003,-2.85668 0,-1.57954 -0.25323,-3.00631 -0.76171,-4.28294 -0.49767,-1.28744 -1.20635,-2.38091 -2.12596,-3.27887 -0.90878,-0.90878 -2.01162,-1.60607 -3.30988,-2.09289 -1.28744,-0.48686 -2.7168,-0.73071 -4.28553,-0.73071 z m 0.19586,7.13962 c 0.49767,0 0.93391,0.10814 1.31258,0.32452 0.38948,0.20558 0.71548,0.48216 0.97513,0.82838 0.25965,0.33537 0.45464,0.72484 0.58446,1.1684 0.14065,0.43274 0.21084,0.88096 0.21084,1.34617 0,0.476 -0.0769,0.93619 -0.22841,1.37976 -0.15147,0.44357 -0.36775,0.83976 -0.64905,1.18598 -0.28128,0.33538 -0.62604,0.60525 -1.03715,0.8108 -0.40032,0.19474 -0.85578,0.29094 -1.36426,0.29094 -0.50848,0 -0.95668,-0.11235 -1.34617,-0.33951 -0.37864,-0.22722 -0.69739,-0.52513 -0.95705,-0.89297 -0.25965,-0.36783 -0.45463,-0.7786 -0.58446,-1.233 -0.12982,-0.4544 -0.19533,-0.90986 -0.19533,-1.36426 0,-0.47601 0.0749,-0.92424 0.22634,-1.34617 0.15146,-0.43276 0.36985,-0.80557 0.65112,-1.11931 0.29212,-0.32459 0.63686,-0.57832 1.03715,-0.76223 0.40031,-0.18392 0.85578,-0.2775 1.36426,-0.2775 z"
       style="font-style:normal;font-variant:normal;font-weight:normal;font-stretch:normal;font-size:24.8781px;line-height:1.25;font-family:'Luckiest Guy';-inkscape-font-specification:'Luckiest Guy';fill:#51115d;fill-opacity:1;stroke:#ffffff;stroke-width:1.505;stroke-linejoin:miter;stroke-miterlimit:4.3;stroke-dasharray:none;stroke-opacity:1"
       id="path1089-5-4-9-0" />
    <path
       id="path901-5"
       d="m -316.82091,286.04419 c -0.119,3.77578 -0.22222,7.53015 -0.30879,11.26262 -0.0757,3.73252 -0.1461,7.48687 -0.21104,11.26262 l 13.66399,-1.07072 0.68198,-7.20631 c -0.60586,0 -1.20181,0.007 -1.78603,0.0177 -0.58422,0.0114 -1.17795,0.0156 -1.78381,0.0156 h -1.51056 c -0.49767,0 -0.99986,-0.0102 -1.50834,-0.031 0.0974,-2.40176 0.25928,-4.78339 0.48648,-7.14189 0.2272,-2.36932 0.46426,-4.73921 0.71308,-7.10854 z"
       style="font-style:normal;font-variant:normal;font-weight:normal;font-stretch:normal;font-size:24.8781px;line-height:1.25;font-family:'Luckiest Guy';-inkscape-font-specification:'Luckiest Guy';fill:#51115d;fill-opacity:1;stroke:#ffffff;stroke-width:1.505;stroke-linejoin:miter;stroke-miterlimit:4.3;stroke-dasharray:none;stroke-opacity:1" />
  </g>
</svg>
